<svg width="75" height="23" viewBox="0 0 75 23" fill="none" xmlns="http://www.w3.org/2000/svg">
<path d="M32.4336 11.9538L31.5195 12.9382V15.3757H29.7617V6.84442H31.5195V10.7116L32.293 9.65106L34.4668 6.84442H36.6289L33.5996 10.6354L36.7168 15.3757H34.625L32.4336 11.9538ZM38.8262 9.03583L38.8789 9.76825C39.332 9.20184 39.9395 8.91864 40.7012 8.91864C41.373 8.91864 41.873 9.11591 42.2012 9.51044C42.5293 9.90497 42.6973 10.4948 42.7051 11.28V15.3757H41.0117V11.321C41.0117 10.9616 40.9336 10.7018 40.7773 10.5417C40.6211 10.3776 40.3613 10.2956 39.998 10.2956C39.5215 10.2956 39.1641 10.4987 38.9258 10.905V15.3757H37.2324V9.03583H38.8262Z" fill="#C0C4FF"/>
<path d="M49.707 12.2643C49.707 13.28 49.4902 14.0729 49.0566 14.6432C48.623 15.2097 48.0176 15.4929 47.2402 15.4929C46.5527 15.4929 46.0039 15.2292 45.5938 14.7018L45.5176 15.3757H43.9941V6.37567H45.6875V9.60419C46.0781 9.14716 46.5918 8.91864 47.2285 8.91864C48.002 8.91864 48.6074 9.2038 49.0449 9.77411C49.4863 10.3405 49.707 11.1393 49.707 12.1706V12.2643ZM48.0137 12.1413C48.0137 11.5007 47.9121 11.0339 47.709 10.7409C47.5059 10.444 47.2031 10.2956 46.8008 10.2956C46.2617 10.2956 45.8906 10.5163 45.6875 10.9577V13.4597C45.8945 13.905 46.2695 14.1276 46.8125 14.1276C47.3594 14.1276 47.7188 13.8581 47.8906 13.319C47.9727 13.0612 48.0137 12.6686 48.0137 12.1413ZM50.4922 12.1472C50.4922 11.5182 50.6133 10.9577 50.8555 10.4655C51.0977 9.97333 51.4453 9.59247 51.8984 9.32294C52.3555 9.05341 52.8848 8.91864 53.4863 8.91864C54.3418 8.91864 55.0391 9.18036 55.5781 9.7038C56.1211 10.2272 56.4238 10.9382 56.4863 11.8366L56.498 12.2702C56.498 13.2429 56.2266 14.0241 55.6836 14.614C55.1406 15.1999 54.4121 15.4929 53.498 15.4929C52.584 15.4929 51.8535 15.1999 51.3066 14.614C50.7637 14.028 50.4922 13.2311 50.4922 12.2233V12.1472ZM52.1855 12.2702C52.1855 12.8718 52.2988 13.3327 52.5254 13.653C52.752 13.9694 53.0762 14.1276 53.498 14.1276C53.9082 14.1276 54.2285 13.9714 54.459 13.6589C54.6895 13.3425 54.8047 12.8386 54.8047 12.1472C54.8047 11.5573 54.6895 11.1003 54.459 10.7761C54.2285 10.4518 53.9043 10.2897 53.4863 10.2897C53.0723 10.2897 52.752 10.4518 52.5254 10.7761C52.2988 11.0964 52.1855 11.5944 52.1855 12.2702ZM61.2148 15.3757C61.1367 15.2233 61.0801 15.0339 61.0449 14.8073C60.6348 15.2643 60.1016 15.4929 59.4453 15.4929C58.8242 15.4929 58.3086 15.3132 57.8984 14.9538C57.4922 14.5944 57.2891 14.1413 57.2891 13.5944C57.2891 12.9225 57.5371 12.4069 58.0332 12.0475C58.5332 11.6882 59.2539 11.5065 60.1953 11.5026H60.9746V11.1393C60.9746 10.8464 60.8984 10.612 60.7461 10.4362C60.5977 10.2604 60.3613 10.1725 60.0371 10.1725C59.752 10.1725 59.5273 10.2409 59.3633 10.3776C59.2031 10.5143 59.123 10.7018 59.123 10.9401H57.4297C57.4297 10.5729 57.543 10.2331 57.7695 9.92059C57.9961 9.60809 58.3164 9.36395 58.7305 9.18817C59.1445 9.00848 59.6094 8.91864 60.125 8.91864C60.9062 8.91864 61.5254 9.11591 61.9824 9.51044C62.4434 9.90106 62.6738 10.4518 62.6738 11.1628V13.9108C62.6777 14.5124 62.7617 14.9675 62.9258 15.2761V15.3757H61.2148ZM59.8145 14.1979C60.0645 14.1979 60.2949 14.1432 60.5059 14.0339C60.7168 13.9206 60.873 13.7702 60.9746 13.5827V12.4929H60.3418C59.4941 12.4929 59.043 12.7858 58.9883 13.3718L58.9824 13.4714C58.9824 13.6823 59.0566 13.8561 59.2051 13.9929C59.3535 14.1296 59.5566 14.1979 59.8145 14.1979ZM67.5371 10.6237C67.3066 10.5925 67.1035 10.5768 66.9277 10.5768C66.2871 10.5768 65.8672 10.7936 65.668 11.2272V15.3757H63.9746V9.03583H65.5742L65.6211 9.79169C65.9609 9.20966 66.4316 8.91864 67.0332 8.91864C67.2207 8.91864 67.3965 8.94403 67.5605 8.99481L67.5371 10.6237ZM67.9766 12.1589C67.9766 11.1706 68.1973 10.3835 68.6387 9.79755C69.084 9.21161 69.6914 8.91864 70.4609 8.91864C71.0781 8.91864 71.5879 9.14911 71.9902 9.61005V6.37567H73.6895V15.3757H72.1602L72.0781 14.7018C71.6562 15.2292 71.1133 15.4929 70.4492 15.4929C69.7031 15.4929 69.1035 15.1999 68.6504 14.614C68.2012 14.0241 67.9766 13.2057 67.9766 12.1589ZM69.6699 12.2819C69.6699 12.8757 69.7734 13.3307 69.9805 13.6472C70.1875 13.9636 70.4883 14.1218 70.8828 14.1218C71.4062 14.1218 71.7754 13.9011 71.9902 13.4597V10.9577C71.7793 10.5163 71.4141 10.2956 70.8945 10.2956C70.0781 10.2956 69.6699 10.9577 69.6699 12.2819Z" fill="white"/>
<rect x="4.91754" y="1.14645" width="12" height="19" rx="1" transform="rotate(15 4.91754 1.14645)" fill="#FEFEFE"/>
<rect x="4.51764" y="13.3757" width="7" height="2" transform="rotate(15 4.51764 13.3757)" fill="#666EEE"/>
<rect x="5.51764" y="10.3757" width="7" height="2" transform="rotate(15 5.51764 10.3757)" fill="#666EEE"/>
<rect x="6.51764" y="7.37567" width="7" height="2" transform="rotate(15 6.51764 7.37567)" fill="#666EEE"/>
<rect x="12.4019" width="13.0426" height="19.8713" rx="1" transform="rotate(15 12.4019 0)" fill="#727AEE"/>
<rect x="13.1719" y="0.375671" width="12" height="19" rx="1" transform="rotate(15 13.1719 0.375671)" fill="white"/>
<rect x="12.5176" y="12.3757" width="7" height="2" transform="rotate(15 12.5176 12.3757)" fill="#727AEE"/>
<rect x="13.5176" y="9.37567" width="7" height="2" transform="rotate(15 13.5176 9.37567)" fill="#727AEE"/>
<rect x="14.5176" y="6.37567" width="7" height="2" transform="rotate(15 14.5176 6.37567)" fill="#727AEE"/>
</svg>
