
<svg width="117" height="60" viewBox="0 0 117 60" fill="none" xmlns="http://www.w3.org/2000/svg">
<path d="M116.97 55.2143C115.416 42.5637 113.667 29.8192 111.744 17.1486C110.88 11.4697 109.983 5.81078 109.054 0.171841L109.025 0L108.86 0.00798753C106.96 0.0819221 105.053 0.129882 103.139 0.151865C102.1 0.165855 101.063 0.173182 100.026 0.173843C96.6057 0.18183 93.1934 0.139874 89.8455 0.0999093C86.418 0.0579415 82.947 0.01599 79.4589 0.0279781C77.1872 0.0359654 74.9079 0.0659425 72.6305 0.133873C69.0988 0.239784 65.5671 0.435605 62.0639 0.779302C58.4469 1.13298 54.7864 1.65051 51.2453 2.15206C47.2134 2.72355 43.0451 3.31302 38.9242 3.66271C31.3493 4.30612 23.6266 4.16426 16.1578 4.02838C12.1278 3.95444 7.96143 3.87851 3.86325 3.92648C3.68515 3.92847 3.43884 3.91248 3.15464 3.8905C2.11067 3.81458 0.680193 3.70867 0.255789 4.43402C-0.0341031 4.92558 0.306942 6.42822 0.744612 8.19463C0.8583 8.65022 0.956814 9.04587 0.98524 9.23968C1.43428 12.165 1.79048 15.1464 2.04814 18.0997C2.57506 24.1676 2.70357 30.2667 2.43276 36.3533C2.13023 43.1164 1.3308 49.8445 0.0416794 56.4772L0 56.691L0.20462 56.717C14.7216 58.5373 29.8961 59.6163 45.3093 59.9241C47.6113 59.97 49.7788 59.996 51.8383 59.998C52.0373 60 52.2343 60 52.4294 60C54.0532 60 55.6106 59.986 57.1131 59.96C58.0775 59.9421 59.0204 59.9187 59.9418 59.8901C61.6186 59.8362 63.231 59.7642 64.8017 59.6723C64.9286 59.6663 65.0537 59.6583 65.1787 59.6503C65.624 59.6243 66.0667 59.5957 66.5069 59.5644C67.2174 59.5164 67.9216 59.4638 68.6194 59.4065C73.4641 59.0109 78.3695 58.3715 83.1516 57.728C83.6878 57.6541 84.2221 57.5815 84.7545 57.5102C85.1145 57.4623 85.4745 57.4123 85.8364 57.3644C93.0437 56.3893 100.41 55.4321 107.771 55.2423C108.055 55.2343 108.341 55.2263 108.626 55.2223C110.103 55.1943 111.58 55.2023 113.055 55.2463C114.294 55.2822 115.532 55.3468 116.769 55.4401L117 55.4561L116.97 55.2143ZM112.86 54.8387C111.437 54.7987 110.014 54.7934 108.591 54.8227C108.262 54.8267 107.934 54.8347 107.604 54.8447C99.9081 55.0545 92.2157 56.0975 84.7052 57.1146L83.9038 57.2225C83.7011 57.2505 83.4964 57.2785 83.2937 57.3064C78.4566 57.9598 73.4907 58.6093 68.591 59.0089C68.034 59.0549 67.4751 59.0968 66.9105 59.1368C66.3288 59.1787 65.7433 59.2167 65.1503 59.2527C65.0252 59.2607 64.8983 59.2687 64.7714 59.2767C63.1931 59.3666 61.5694 59.4385 59.8831 59.4905C58.7823 59.5264 57.6531 59.5531 56.4954 59.5704C54.9929 59.5944 53.4336 59.6044 51.808 59.5984C49.7598 59.5944 47.6037 59.5704 45.3168 59.5244C29.9889 59.2187 14.8959 58.1477 0.454724 56.3453C1.72277 49.7612 2.51072 43.0843 2.81169 36.3733C3.08379 30.268 2.95464 24.1502 2.42518 18.0637C2.1675 15.1004 1.80941 12.1111 1.36037 9.17574C1.32627 8.96193 1.23153 8.57827 1.11216 8.09271C0.863958 7.09961 0.350516 5.02946 0.577867 4.64381C0.882918 4.12429 2.2338 4.2242 3.12999 4.29013C3.42177 4.31012 3.67188 4.3281 3.86704 4.32611C7.95953 4.27814 12.124 4.35407 16.1521 4.428C23.6285 4.56389 31.3607 4.70576 38.9545 4.06034C43.0849 3.71066 47.2589 3.11918 51.2964 2.5477C54.8319 2.04815 58.4886 1.53061 62.0999 1.17694C62.3765 1.14896 62.6512 1.12298 62.9278 1.09901C63.0548 1.08702 63.1817 1.07504 63.3068 1.06504C66.3401 0.797274 69.3944 0.633423 72.4486 0.539513C74.798 0.46758 77.1474 0.435603 79.4892 0.427615C82.964 0.415625 86.4256 0.457578 89.8417 0.499543C93.1801 0.541511 96.5792 0.581464 99.9877 0.573477C101.039 0.571476 102.091 0.565488 103.142 0.5495C105.003 0.527521 106.858 0.482231 108.709 0.413625C109.605 5.84874 110.47 11.3085 111.305 16.7929C113.241 29.5154 115.003 42.3159 116.564 55.0225C115.331 54.9306 114.096 54.8693 112.86 54.8387Z" fill="#3F3D56"/>
<path d="M55.1483 43.8878C54.6223 40.2167 55.0939 36.4707 55.55 32.8481C55.7937 30.9121 56.0456 28.9102 56.1426 26.9427C56.3471 22.7949 55.8719 18.5845 55.4122 14.5127C54.9973 10.8374 54.5684 7.03701 54.637 3.28096L54.9424 3.28635C54.874 7.02332 55.3019 10.814 55.7157 14.48C56.1766 18.5633 56.6533 22.7857 56.4477 26.957C56.3501 28.9356 56.0974 30.9431 55.853 32.8845C55.3994 36.488 54.9302 40.2142 55.4507 43.8464L55.1483 43.8878Z" fill="#3F3D56"/>
<path d="M28.5185 46.6068C27.9925 42.9357 28.4641 39.1897 28.9202 35.5671C29.1639 33.6311 29.4159 31.6292 29.5129 29.6617C29.7173 25.514 29.2421 21.3035 28.7824 17.2317C28.3676 13.5565 27.9386 9.75605 28.0073 6L28.3126 6.00539C28.2443 9.74236 28.6722 13.5331 29.0859 17.199C29.5468 21.2823 30.0235 25.5047 29.8179 29.676C29.7203 31.6547 29.4676 33.6621 29.2232 35.6035C28.7696 39.207 28.3005 42.9332 28.8209 46.5654L28.5185 46.6068Z" fill="#3F3D56"/>
<path d="M82.9671 44.9188C81.7842 30.2438 81.2668 15.3396 81.4296 0.6203L81.735 0.623506C81.5723 15.334 82.0892 30.2292 83.2716 44.8955L82.9671 44.9188Z" fill="#3F3D56"/>
<path d="M91.9631 7C92.6278 7 93.0305 6.58878 93.0305 5.90696C93.0305 5.22727 92.6278 4.81818 91.9695 4.81818H91.1896V7H91.9631ZM91.6509 6.60476V5.21342H91.945C92.354 5.21342 92.5703 5.42223 92.5703 5.90696C92.5703 6.39382 92.354 6.60476 91.9439 6.60476H91.6509ZM94.1031 7.03196C94.5995 7.03196 94.9085 6.69212 94.9085 6.18821C94.9085 5.68111 94.5995 5.34233 94.1031 5.34233C93.6066 5.34233 93.2977 5.68111 93.2977 6.18821C93.2977 6.69212 93.6066 7.03196 94.1031 7.03196ZM94.1052 6.6804C93.8762 6.6804 93.759 6.47053 93.759 6.18501C93.759 5.8995 93.8762 5.68857 94.1052 5.68857C94.33 5.68857 94.4472 5.8995 94.4472 6.18501C94.4472 6.47053 94.33 6.6804 94.1052 6.6804ZM95.6574 6.05398C95.6585 5.84304 95.7842 5.71946 95.9674 5.71946C96.1496 5.71946 96.2593 5.83878 96.2583 6.03906V7H96.7121V5.9581C96.7121 5.5767 96.4884 5.34233 96.1475 5.34233C95.9046 5.34233 95.7288 5.46165 95.6553 5.65234H95.6361V5.36364H95.2036V7H95.6574V6.05398ZM97.8155 7.03196C98.2203 7.03196 98.4931 6.83487 98.557 6.53125L98.1373 6.50355C98.0914 6.6282 97.9743 6.69318 97.823 6.69318C97.5961 6.69318 97.4522 6.54297 97.4522 6.29901V6.29794H98.5666V6.1733C98.5666 5.61719 98.2299 5.34233 97.7974 5.34233C97.3159 5.34233 97.0037 5.6843 97.0037 6.18928C97.0037 6.7081 97.3116 7.03196 97.8155 7.03196ZM97.4522 6.01669C97.4618 5.83026 97.6035 5.68111 97.8049 5.68111C98.002 5.68111 98.1383 5.82173 98.1394 6.01669H97.4522Z" fill="black"/>
<path d="M60.6509 5.81818H60.1896V8H60.6509V5.81818ZM61.4758 7.05398C61.4768 6.84304 61.6025 6.71946 61.7858 6.71946C61.968 6.71946 62.0777 6.83878 62.0766 7.03906V8H62.5305V6.9581C62.5305 6.5767 62.3067 6.34233 61.9658 6.34233C61.7229 6.34233 61.5471 6.46165 61.4736 6.65234H61.4545V6.36364H61.0219V8H61.4758V7.05398ZM63.591 8H64.0523V7.29261H64.4401C64.9419 7.29261 65.2338 6.99325 65.2338 6.55753C65.2338 6.12393 64.9472 5.81818 64.4518 5.81818H63.591V8ZM64.0523 6.92294V6.19531H64.3634C64.6297 6.19531 64.7586 6.3402 64.7586 6.55753C64.7586 6.77379 64.6297 6.92294 64.3655 6.92294H64.0523ZM65.5249 8H65.9787V7.07422C65.9787 6.87287 66.1257 6.73438 66.326 6.73438C66.3888 6.73438 66.4751 6.74503 66.5178 6.75888V6.35618C66.4773 6.34659 66.4208 6.3402 66.375 6.3402C66.1918 6.3402 66.0415 6.44673 65.9819 6.64915H65.9648V6.36364H65.5249V8ZM67.4156 8.03196C67.912 8.03196 68.221 7.69212 68.221 7.18821C68.221 6.68111 67.912 6.34233 67.4156 6.34233C66.9191 6.34233 66.6102 6.68111 66.6102 7.18821C66.6102 7.69212 66.9191 8.03196 67.4156 8.03196ZM67.4177 7.6804C67.1887 7.6804 67.0715 7.47053 67.0715 7.18501C67.0715 6.8995 67.1887 6.68857 67.4177 6.68857C67.6425 6.68857 67.7597 6.8995 67.7597 7.18501C67.7597 7.47053 67.6425 7.6804 67.4177 7.6804ZM69.2533 8.63707C69.721 8.63707 70.0534 8.42401 70.0534 8.01598V6.36364H69.6027V6.63849H69.5857C69.5249 6.50533 69.3918 6.34233 69.118 6.34233C68.759 6.34233 68.4553 6.62145 68.4553 7.17862C68.4553 7.72301 68.7504 7.97656 69.1191 7.97656C69.3801 7.97656 69.526 7.84553 69.5857 7.71023H69.6048V8.00959C69.6048 8.22372 69.461 8.31108 69.2639 8.31108C69.0637 8.31108 68.9624 8.22372 68.9252 8.1353L68.5054 8.19176C68.5597 8.43892 68.8122 8.63707 69.2533 8.63707ZM69.2629 7.63565C69.0402 7.63565 68.9188 7.45881 68.9188 7.17649C68.9188 6.89844 69.0381 6.70348 69.2629 6.70348C69.4834 6.70348 69.607 6.88991 69.607 7.17649C69.607 7.4652 69.4813 7.63565 69.2629 7.63565ZM70.4145 8H70.8683V7.07422C70.8683 6.87287 71.0154 6.73438 71.2156 6.73438C71.2785 6.73438 71.3648 6.74503 71.4074 6.75888V6.35618C71.3669 6.34659 71.3105 6.3402 71.2646 6.3402C71.0814 6.3402 70.9312 6.44673 70.8715 6.64915H70.8545V6.36364H70.4145V8ZM72.3116 8.03196C72.7164 8.03196 72.9892 7.83487 73.0531 7.53125L72.6333 7.50355C72.5875 7.6282 72.4703 7.69318 72.3191 7.69318C72.0922 7.69318 71.9483 7.54297 71.9483 7.29901V7.29794H73.0627V7.1733C73.0627 6.61719 72.726 6.34233 72.2935 6.34233C71.812 6.34233 71.4998 6.6843 71.4998 7.18928C71.4998 7.7081 71.8077 8.03196 72.3116 8.03196ZM71.9483 7.01669C71.9579 6.83026 72.0996 6.68111 72.301 6.68111C72.498 6.68111 72.6344 6.82173 72.6355 7.01669H71.9483ZM74.7203 6.83026C74.6799 6.52876 74.437 6.34233 74.0236 6.34233C73.6049 6.34233 73.329 6.53622 73.3301 6.85156C73.329 7.09659 73.4835 7.25533 73.8031 7.31925L74.0865 7.37571C74.2292 7.40447 74.2942 7.45668 74.2963 7.53871C74.2942 7.63565 74.1887 7.7049 74.03 7.7049C73.8681 7.7049 73.7605 7.63565 73.7328 7.50249L73.2864 7.52592C73.329 7.83913 73.5953 8.03196 74.0289 8.03196C74.4529 8.03196 74.7566 7.8157 74.7576 7.4929C74.7566 7.25639 74.6021 7.1147 74.2846 7.04972L73.9885 6.99006C73.8361 6.95703 73.7797 6.90483 73.7807 6.82599C73.7797 6.72798 73.8904 6.66406 74.0311 6.66406C74.1887 6.66406 74.2825 6.75036 74.3049 6.85582L74.7203 6.83026ZM76.4049 6.83026C76.3644 6.52876 76.1215 6.34233 75.7082 6.34233C75.2895 6.34233 75.0136 6.53622 75.0146 6.85156C75.0136 7.09659 75.1681 7.25533 75.4877 7.31925L75.771 7.37571C75.9138 7.40447 75.9788 7.45668 75.9809 7.53871C75.9788 7.63565 75.8733 7.7049 75.7146 7.7049C75.5526 7.7049 75.445 7.63565 75.4173 7.50249L74.971 7.52592C75.0136 7.83913 75.2799 8.03196 75.7135 8.03196C76.1375 8.03196 76.4411 7.8157 76.4422 7.4929C76.4411 7.25639 76.2867 7.1147 75.9692 7.04972L75.673 6.99006C75.5207 6.95703 75.4642 6.90483 75.4653 6.82599C75.4642 6.72798 75.575 6.66406 75.7156 6.66406C75.8733 6.66406 75.9671 6.75036 75.9894 6.85582L76.4049 6.83026Z" fill="black"/>
<path d="M37.1065 8.19851H37.7745V10H38.2305V8.19851H38.8984V7.81818H37.1065V8.19851ZM39.6871 10.032C40.1835 10.032 40.4925 9.69212 40.4925 9.18821C40.4925 8.68111 40.1835 8.34233 39.6871 8.34233C39.1906 8.34233 38.8817 8.68111 38.8817 9.18821C38.8817 9.69212 39.1906 10.032 39.6871 10.032ZM39.6892 9.6804C39.4601 9.6804 39.343 9.47053 39.343 9.18501C39.343 8.8995 39.4601 8.68857 39.6892 8.68857C39.914 8.68857 40.0312 8.8995 40.0312 9.18501C40.0312 9.47053 39.914 9.6804 39.6892 9.6804ZM42.2638 10C42.9286 10 43.3313 9.58878 43.3313 8.90696C43.3313 8.22727 42.9286 7.81818 42.2702 7.81818H41.4904V10H42.2638ZM41.9517 9.60476V8.21342H42.2457C42.6548 8.21342 42.8711 8.42223 42.8711 8.90696C42.8711 9.39382 42.6548 9.60476 42.2447 9.60476H41.9517ZM44.4039 10.032C44.9003 10.032 45.2093 9.69212 45.2093 9.18821C45.2093 8.68111 44.9003 8.34233 44.4039 8.34233C43.9074 8.34233 43.5985 8.68111 43.5985 9.18821C43.5985 9.69212 43.9074 10.032 44.4039 10.032ZM44.406 9.6804C44.1769 9.6804 44.0597 9.47053 44.0597 9.18501C44.0597 8.8995 44.1769 8.68857 44.406 8.68857C44.6308 8.68857 44.748 8.8995 44.748 9.18501C44.748 9.47053 44.6308 9.6804 44.406 9.6804Z" fill="black"/>
<path d="M11.1896 11H12.1218C12.6119 11 12.8729 10.7443 12.8729 10.397C12.8729 10.0742 12.6417 9.87926 12.3935 9.86754V9.84624C12.6204 9.7951 12.7876 9.63423 12.7876 9.37749C12.7876 9.05043 12.5447 8.81818 12.0632 8.81818H11.1896V11ZM11.6509 10.6229V10.0433H12.0376C12.2592 10.0433 12.3967 10.1712 12.3967 10.3512C12.3967 10.5153 12.2848 10.6229 12.027 10.6229H11.6509ZM11.6509 9.73118V9.19105H12.0014C12.206 9.19105 12.3221 9.29652 12.3221 9.45419C12.3221 9.62678 12.1815 9.73118 11.9929 9.73118H11.6509ZM13.6311 11.0309C13.873 11.0309 14.0296 10.9254 14.1095 10.7731H14.1222V11H14.5526V9.89631C14.5526 9.50639 14.2224 9.34233 13.858 9.34233C13.466 9.34233 13.2082 9.52983 13.1453 9.82812L13.5651 9.86222C13.596 9.75355 13.6929 9.67365 13.8559 9.67365C14.0104 9.67365 14.0988 9.75142 14.0988 9.88565V9.89205C14.0988 9.99751 13.9869 10.0114 13.7025 10.0391C13.3786 10.0689 13.0878 10.1776 13.0878 10.543C13.0878 10.8668 13.319 11.0309 13.6311 11.0309ZM13.7611 10.7177C13.6215 10.7177 13.5214 10.6527 13.5214 10.5281C13.5214 10.4002 13.6269 10.3374 13.7867 10.315C13.8857 10.3011 14.0477 10.2777 14.102 10.2415V10.4151C14.102 10.5866 13.9603 10.7177 13.7611 10.7177ZM15.6441 11.032C16.0798 11.032 16.3536 10.7763 16.3749 10.4002H15.9466C15.92 10.5749 15.805 10.6729 15.6494 10.6729C15.4374 10.6729 15.3 10.495 15.3 10.1818C15.3 9.87287 15.4385 9.69602 15.6494 9.69602C15.8156 9.69602 15.9221 9.80575 15.9466 9.96875H16.3749C16.3557 9.59055 16.0692 9.34233 15.642 9.34233C15.1455 9.34233 14.8387 9.68643 14.8387 10.1882C14.8387 10.6857 15.1402 11.032 15.6441 11.032ZM16.6655 11H17.1193V10.4801L17.2418 10.3406L17.6882 11H18.2198L17.5817 10.0721L18.1889 9.36364H17.668L17.1438 9.98473H17.1193V8.81818H16.6655V11ZM18.8654 8.81818H18.4116V11H18.8654V8.81818ZM19.9683 11.032C20.4648 11.032 20.7737 10.6921 20.7737 10.1882C20.7737 9.68111 20.4648 9.34233 19.9683 9.34233C19.4719 9.34233 19.1629 9.68111 19.1629 10.1882C19.1629 10.6921 19.4719 11.032 19.9683 11.032ZM19.9704 10.6804C19.7414 10.6804 19.6242 10.4705 19.6242 10.185C19.6242 9.8995 19.7414 9.68857 19.9704 9.68857C20.1952 9.68857 20.3124 9.8995 20.3124 10.185C20.3124 10.4705 20.1952 10.6804 19.9704 10.6804ZM21.806 11.6371C22.2737 11.6371 22.6061 11.424 22.6061 11.016V9.36364H22.1555V9.63849H22.1384C22.0777 9.50533 21.9445 9.34233 21.6707 9.34233C21.3117 9.34233 21.0081 9.62145 21.0081 10.1786C21.0081 10.723 21.3032 10.9766 21.6718 10.9766C21.9328 10.9766 22.0787 10.8455 22.1384 10.7102H22.1576V11.0096C22.1576 11.2237 22.0138 11.3111 21.8167 11.3111C21.6164 11.3111 21.5152 11.2237 21.4779 11.1353L21.0581 11.1918C21.1125 11.4389 21.365 11.6371 21.806 11.6371ZM21.8156 10.6357C21.593 10.6357 21.4715 10.4588 21.4715 10.1765C21.4715 9.89844 21.5908 9.70348 21.8156 9.70348C22.0361 9.70348 22.1597 9.88991 22.1597 10.1765C22.1597 10.4652 22.034 10.6357 21.8156 10.6357Z" fill="black"/>
<path d="M41.8703 25.0558H35C35.7728 21.9578 36.5151 19.0654 35 17H41.8703C43.1635 19.6881 43.1635 22.3733 41.8703 25.0558Z" fill="#F4AEAC"/>
<path d="M74.2598 37.2842H67.3895C66.9598 33.5498 67.9078 30.7663 67.3895 29.2284H74.2598C73.9958 31.9075 73.9958 34.6052 74.2598 37.2842V37.2842Z" fill="#F4AEAC"/>
<path d="M66.2283 25.9038H59.3579C59.6155 22.8063 60.4461 19.9139 59.3579 17.8481H66.2283C67.5218 20.5333 67.5218 23.2186 66.2283 25.9038Z" fill="#F4AEAC"/>
<path d="M13.8704 43.0558H7C7.25761 39.9583 8.0882 37.0658 7 35H13.8704C15.1639 37.6853 15.1639 40.3705 13.8704 43.0558Z" fill="#F4AEAC"/>
<path d="M92.8703 31.0558H86C86.2576 27.9583 87.0882 25.0658 86 23H92.8703C94.1639 25.6853 94.1639 28.3705 92.8703 31.0558Z" fill="#F4AEAC"/>
<path d="M70.9701 21.0558H77.8405C78.2702 17.9577 77.3221 15.0654 77.8405 13H70.9701C69.6766 15.6853 69.6766 18.3705 70.9701 21.0558Z" fill="#7EBEB6"/>
<path d="M17.9701 52.0558H24.8405C25.2702 48.9577 24.3221 46.0654 24.8405 44H17.9701C16.6766 46.6853 16.6766 49.3705 17.9701 52.0558Z" fill="#7EBEB6"/>
<path d="M97.9701 23.0558H104.84C105.27 19.9577 104.322 17.0654 104.84 15H97.9701C96.6766 17.6853 96.6766 20.3705 97.9701 23.0558Z" fill="#7EBEB6"/>
<path d="M42.1058 36.0482H48.9761C49.4058 32.9501 48.4577 30.0578 48.9761 27.9924H42.1058C40.8122 30.6777 40.8122 33.3629 42.1058 36.0482Z" fill="#CCCCCC"/>
<path d="M97.9701 39.0558H104.84C105.27 35.9577 104.322 33.0654 104.84 31H97.9701C96.6766 33.6853 96.6766 36.3705 97.9701 39.0558Z" fill="#CCCCCC"/>
<path d="M14.8703 26.0558H8C8.77279 22.9578 9.51515 20.0654 8 18H14.8703C16.1635 20.6881 16.1635 23.3733 14.8703 26.0558Z" fill="#F4AEAC"/>
<path d="M17.9701 34.0558H24.8405C25.2701 30.9577 24.3221 28.0654 24.8405 26H17.9701C16.6766 28.6853 16.6766 31.3705 17.9701 34.0558Z" fill="#CCCCCC"/>
</svg>
