<svg id="a7d7e687-20d8-4a78-89a7-2dbb27c3ecbc" data-name="Layer 1" xmlns="http://www.w3.org/2000/svg" width="888" height="603.97875" viewBox="0 0 888 603.97875"><title>sorting_thoughts</title><path d="M167,535.83516H156v93s71,23,140,0v-93Z" transform="translate(-156 -148.01063)" fill="#e6e6e6"/><ellipse cx="69" cy="388.32453" rx="69" ry="10.5" fill="#e6e6e6"/><ellipse cx="69" cy="388.32453" rx="69" ry="10.5" opacity="0.1"/><path d="M249.27869,309.83872s42.34638,1.15129,49.34015,3.69575S308.74,334.27408,308.74,334.27408l-32.87919,10.33437-24.59189-1.393L232.761,344.52327,243.0952,317.458Z" transform="translate(-156 -148.01063)" fill="#2f2e41"/><path d="M251.10527,295.94358s2.78616,10.76072-3.39733,18.38S274.29,349.09327,274.29,349.09327l17.28539-2.971s-3.8097-33.064,1.30766-41.43663S251.10527,295.94358,251.10527,295.94358Z" transform="translate(-156 -148.01063)" fill="#9f616a"/><polygon points="210.063 462.552 171.924 513.129 197.952 528.325 233.773 469.717 210.063 462.552" fill="#9f616a"/><path d="M339.31013,661.99288s-14.04443-16.31874-13.419-12.67971-9.993,34.49974-.11362,37.48486,94.60062,10.90262,95.76622,1.33594-25.27425-16.26185-25.27425-16.26185-15.70758-15.09625-19.19024-13.561S339.31013,661.99288,339.31013,661.99288Z" transform="translate(-156 -148.01063)" fill="#2f2e41"/><polygon points="201.505 510.855 231.968 562.754 254.968 549.434 224.249 506.946 201.505 510.855" fill="#9f616a"/><path d="M405.59416,535.39423l-9.04068,12.79349s-43.09961,59.85933-38.52238,64.69241,23.63955,23.09925,33.33415,19.5597S435.50253,567.719,435.50253,567.719l-8.98395-35.92119Z" transform="translate(-156 -148.01063)" fill="#d0cde1"/><path d="M219.93248,523.28359s9.652,18.01033,34.116,24.10848,50.02251,18.56461,50.93227,18.40824,3.48266-1.53522,4.10813,2.10381,7.33495,9.97888,7.33495,9.97888,27.02289,91.82859,37.343,91.92807,31.52877-7.29236,31.96942-10.178-31.60013-96.66167-31.91286-98.48118l-3.75281-21.83418s42.37483,6.76621,46.32659,7.96025,39.10542,20.441,39.10542,20.441,35.83585-25.82868,2.3169-51.913-91.13226-45.21755-91.13226-45.21755l-20.66857-5.81386-18.01336-1.07518L305.353,453.5284l-42.66206,2.46143-44.52122,18.89181Z" transform="translate(-156 -148.01063)" fill="#d0cde1"/><circle cx="120.23729" cy="136.12025" r="33.23151" fill="#9f616a"/><path d="M246.17272,310.84088l3.99683-.687s7.21885,27.79488,29.55057,32.38625c0,0,11.01915-13.2004,10.54875-15.42771s8.72666-14.111,13.61663-7.45845-1.19372,123.84077,2.91441,125.94457,12.92142,4.33553,5.82817,12.11114S277.3608,475.9476,271.12042,472.337s-18.99128-34.20115-24.50672-44.49277-14.343-45.303-14.343-45.303-11.27257-38.33773-4.33569-47.02309S246.17272,310.84088,246.17272,310.84088Z" transform="translate(-156 -148.01063)" fill="#6c63ff"/><path d="M277.9771,455.11155a189.57234,189.57234,0,0,1-3.80657,24.26808c-1.62981,6.508-3.52744,10.43726-5.693,10.26986-5.52564-.413-8.03729,7.69124-9.33222,17.03456-1.38419,9.91264-1.38419,21.22057-2.14325,25.2169-1.00462,5.28009-7.43445,9.30987-20.28293,8.12661a90.65971,90.65971,0,0,1-22.3481-5.481c-17.34708-6.307-16.83364-57.45529-13.93125-95.40907,1.77486-23.26346,4.44281-41.58171,4.44281-41.58171s-5.26885-15.71735-6.95445-26.48956a35.21054,35.21054,0,0,1-.50235-5.94976c.25673-9.4103,17.19279-21.44117,27.57425-37.28129,10.39263-15.84013,24.81312-17.61773,24.81312-17.61773l-4.934,14.89124s7.64654,11.79917,7.70241,23.029,18.30708,19.33411,24.85968,24.77043C281.56034,376.324,281.45992,421.92434,277.9771,455.11155Z" transform="translate(-156 -148.01063)" fill="#2f2e41"/><path d="M292.4069,315.5388s1.19752,1.41554,6.681.72494c6.5762-.82821,15.61831,1.4471,17.719,7.72579,3.85229,11.51411,14.71265,58.35238,14.71265,58.35238s4.52051,53.54776,6.55328,65.37461,1.02354,22.30327,3.02786,28.51521-19.78726-11.58515-27.81871-9.26808-13.19156-27.70493-12.18233-38.18136,1.8621-21.86262-.92406-32.62334,2.15346-39.24042,1.96865-45.76509S284.43484,327.42483,292.4069,315.5388Z" transform="translate(-156 -148.01063)" fill="#2f2e41"/><path d="M315.92051,481.96459s35.18569,19.19574,38.5531,46.51753-47.06213-26.45463-47.06213-26.45463Z" transform="translate(-156 -148.01063)" fill="#9f616a"/><path d="M336.00606,462.58957s10.78165,54.34487,27.57717,51.45809-9.382-54.58544-9.382-54.58544Z" transform="translate(-156 -148.01063)" fill="#9f616a"/><path d="M393.5261,699.506s-8.6,9.90785-10.73227,8.40107-7.03635,19.00543-2.61549,22.92875,21.45041,10.36265,21.63522,16.88732,45.85749,5.231,47.49219-1.60643-5.72869-22.43119-10.90295-25.28839-24.30619-29.15463-24.30619-29.15463S399.11257,693.86267,393.5261,699.506Z" transform="translate(-156 -148.01063)" fill="#2f2e41"/><path d="M310.31592,515.20133c-8.16006-5.76008-30.94346-7.18889-51.17065-8.51728-8.87443-.56932-17.25776-1.12746-23.69876-2.03165-6.20656-.85956-11.788-6.53032-16.74432-14.98063-7.51259-12.80378-13.5852-32.00394-18.26245-50.53429,1.77486-23.26346,4.44281-41.58171,4.44281-41.58171s-5.26885-15.71735-6.95445-26.48956a14.17612,14.17612,0,0,1,4.48749-4.041c21.455-9.20937,41.93887,81.422,44.53984,95.64358.04469.23438.07815.45765.11167.6474,1.26134,7.32284,14.89124,13.58527,27.10343,16.06339,7.52376,1.52931,14.52291,1.62981,17.749-.35722,8.47258-5.20187,34.52676,15.61686,36.50255,16.20852C330.39793,495.8337,322.03694,523.49534,310.31592,515.20133Z" transform="translate(-156 -148.01063)" opacity="0.1"/><path d="M202.4192,361.44627s-15.5938,7.3634-8.74209,41.77781,20.6546,92.92316,41.76383,95.85138,63.14288,2.26,74.87024,10.5473,20.08569-19.37505,18.10981-19.97207-28.032-21.40766-36.50407-16.205-42.81548-3.88057-44.84825-15.70741S224.22493,352.07855,202.4192,361.44627Z" transform="translate(-156 -148.01063)" fill="#2f2e41"/><path d="M314.78844,344.94239l17.138,39.767s1.72533-.86074,3.72966,5.3512,2.94252,11.67048,6.45363,15.75016,19.13352,62.27571,19.60262,65.005-21.57707,12.13832-26.50318,4.55531S314.78844,344.94239,314.78844,344.94239Z" transform="translate(-156 -148.01063)" fill="#2f2e41"/><path d="M257.33067,283.6683c1.27358-.34,1.46068-2.031,1.50337-3.34846.22859-7.0554,4.4771-14.295,11.23078-16.349a18.88142,18.88142,0,0,1,7.9587-.438,30.14557,30.14557,0,0,1,10.77824,3.59582c1.759.98891,3.48436,2.18,5.47953,2.482,1.31767.1995,7.02305,1.85833,8.33513,2.09178,2.88475.51325,5.56568,3.09426,8.33384,2.13381,2.64832-.91886,3.23456-4.34782,3.29857-7.15028.14583-6.38458-7.70095-12.22108-11.97-16.97071-3.23965-3.60432-8.11764-5.26813-12.88608-6.13328a85.79028,85.79028,0,0,0-16.85259-1.02522c-7.63115.13611-8.47383-2.27488-15.355,1.027s-12.66118,9.8735-12.991,17.49873c-.06871,1.58841.09515,3.18344-.0384,4.76771-.3258,3.86482-3.37806,6.35568-4.34078,10.11282a20.33477,20.33477,0,0,0,2.83974,16.25034c2.5538,3.75829,3.27068,6.54442,6.34532,10.62164,1.84581-1.9123.76625-1.74738,2.61206-3.65968a4.54728,4.54728,0,0,0,1.35239-5.55565l-1.96-7.64516a6.89794,6.89794,0,0,1-.16972-4.25467C252.93589,276.5278,255.20721,284.23525,257.33067,283.6683Z" transform="translate(-156 -148.01063)" fill="#2f2e41"/><path d="M1043.86524,380.69362c-6.905-53.312-14.67741-107.01972-23.22447-160.41586q-5.75982-35.89776-11.95752-71.543l-.12633-.72417-.73261.03366q-12.669.46736-25.43076.60632-6.92185.08844-13.83534.09262c-15.19949.03366-30.36533-.14314-45.24483-.31156-15.23321-.17686-30.66009-.35366-46.16272-.30314-10.09651.03366-20.22673.16-30.34847.44627-15.69635.44633-31.39269,1.27155-46.96271,2.71995-16.07529,1.49044-32.34419,3.67145-48.08263,5.78507-17.91944,2.40833-36.44516,4.89247-54.76035,6.36611-33.66626,2.71147-67.98937,2.11362-101.18407,1.541-17.911-.31157-36.4283-.63156-54.64245-.42942-.79155.00838-1.88624-.059-3.14936-.15162-4.63986-.31994-10.99754-.76627-12.88378,2.29048-1.28841,2.07153.22732,8.40392,2.17252,15.84791.50528,1.91991.94312,3.58726,1.06946,4.404,1.99572,12.328,3.57883,24.89183,4.724,37.33776a557.12336,557.12336,0,0,1,1.70944,76.9238,551.83192,551.83192,0,0,1-10.627,84.80569l-.18528.901.90946.10948c64.52,7.67132,131.962,12.21851,200.46508,13.51534,10.23121.19366,19.86459.30313,29.018.31156.88417.00843,1.75992.00843,2.62728.00843,7.21656,0,14.13847-.05895,20.81614-.16842q6.4293-.11372,12.57222-.29476c7.45242-.22733,14.61846-.53046,21.59932-.91784.56418-.02528,1.12-.05895,1.67573-.09261q2.96829-.16422,5.903-.36209,4.7367-.30321,9.38914-.66528c21.53194-1.66729,43.33335-4.36195,64.58739-7.07342q3.57465-.46734,7.124-.91789c1.59992-.20209,3.19989-.41261,4.80823-.6147,32.03268-4.10934,64.77268-8.14293,97.48738-8.94286,1.26312-.03372,2.53467-.06738,3.79778-.08424q9.8523-.17685,19.68779.101,8.26076.22734,16.50471.81684l1.02736.06738Zm-18.26467-1.58312q-9.486-.25263-18.972-.06738c-1.46521.01686-2.922.05053-4.38725.09262-34.2052.88422-68.39355,5.27985-101.77353,9.566l-3.562.45471c-.901.1179-1.81049.2358-2.71152.35366-21.49822,2.75361-43.56911,5.49036-65.34523,7.17452-2.47571.19366-4.95985.37051-7.46923.53894-2.58518.1768-5.18723.3368-7.82293.48842-.55575.03366-1.11993.06733-1.68416.101-7.01447.3789-14.23109.68209-21.7256.901q-7.33871.22743-15.05636.33685c-6.67767.101-13.608.14314-20.833.11791-9.10286-.01686-18.68571-.11791-28.8496-.31157-68.12408-1.2884-135.204-5.80193-199.38719-13.39749a554.42688,554.42688,0,0,0,10.47545-84.16565,557.8679,557.8679,0,0,0-1.71787-77.15961c-1.14522-12.488-2.73676-25.08553-4.73248-37.45566-.15156-.901-.5726-2.5178-1.10312-4.56405-1.10312-4.1851-3.38511-12.90907-2.37466-14.53427,1.35578-2.18938,7.35975-1.76834,11.34281-1.49049,1.29679.08423,2.40834.16,3.2757.15161,18.18886-.20214,36.69772.11786,54.60031.42942,33.22841.57266,67.59361,1.1705,101.34411-1.54939,18.35729-1.47364,36.90824-3.96621,54.85292-6.37454,15.7132-2.10519,31.9653-4.2862,48.0153-5.77664,1.22945-.11791,2.45043-.22738,3.67988-.32842.56418-.05053,1.1284-.101,1.68415-.14314,13.48168-1.12841,27.056-1.81892,40.63027-2.21467,10.44178-.30314,20.88352-.4379,31.29159-.47156,15.44373-.05053,30.82851.12628,46.01115.30313,14.83741.17686,29.94429.34523,45.09327.31157,4.67357-.00843,9.34709-.03367,14.02062-.10105q12.40382-.13893,24.74025-.57261,5.97452,34.3568,11.53648,69.02511c8.606,53.61514,16.43733,107.55865,23.37609,161.10636Q1033.84034,379.30422,1025.60057,379.1105Z" transform="translate(-156 -148.01063)" fill="#3f3d56"/><path d="M658.731,395.74221c-2.90122-20.72219-.30015-41.86706,2.21539-62.31541,1.34412-10.9281,2.73388-22.2279,3.26881-33.334,1.12784-23.41248-1.49337-47.179-4.02865-70.163-2.28817-20.74562-4.654-42.19764-4.27536-63.39926l1.68416.03043c-.377,21.09389,1.98308,42.49122,4.26508,63.18422,2.54226,23.049,5.17129,46.88293,4.03728,70.42863-.53822,11.16864-1.93209,22.5001-3.27991,33.45862-2.502,20.34063-5.08947,41.37366-2.21909,61.87629Z" transform="translate(-156 -148.01063)" fill="#3f3d56"/><path d="M812.16639,401.56193c-6.52446-82.83531-9.378-166.96458-8.48-250.04988l1.68416.0181c-.89718,83.03554,1.95388,167.11423,8.47505,249.9002Z" transform="translate(-156 -148.01063)" fill="#3f3d56"/><path d="M558.91884,190.53628l-.17762-1.67511a460.06014,460.06014,0,0,1,61.67357-2.35313l-.04934,1.68334A458.17642,458.17642,0,0,0,558.91884,190.53628Z" transform="translate(-156 -148.01063)" fill="#3f3d56"/><path d="M703.48735,183.24581l-.0477-1.68333c10.07821-.28412,20.49933-.57811,30.62853-2.00816,11.36312-1.60439,22.63783-4.675,33.54126-7.64449l.44242,1.625c-10.95359,2.983-22.28052,6.06806-33.74849,7.68725C724.08084,182.66524,713.61161,182.96046,703.48735,183.24581Z" transform="translate(-156 -148.01063)" fill="#3f3d56"/><path d="M947.85442,171.57637c-1.24667,0-2.48758-.01028-3.72109-.02056l-96.02567-.7952.01315-1.68416,96.02567.79521c6.60752.05509,13.433.111,19.93357-1.44362l.39143,1.6381A71.217,71.217,0,0,1,947.85442,171.57637Z" transform="translate(-156 -148.01063)" fill="#3f3d56"/><path d="M587.63583,274.01919h-37.8935c4.26234-17.48726,8.35685-33.81351,0-45.47221h37.8935Q598.33438,251.30693,587.63583,274.01919Z" transform="translate(-156 -148.01063)" fill="#6c63ff"/><path d="M764.14059,358.46756H726.247c-2.37-21.07946,2.859-36.79131,0-45.47219h37.89354A237.22422,237.22422,0,0,0,764.14059,358.46756Z" transform="translate(-156 -148.01063)" fill="#6c63ff"/><path d="M719.84208,294.22906H681.94857c1.42085-17.48446,6.002-33.81121,0-45.47221h37.89351Q730.54377,271.49295,719.84208,294.22906Z" transform="translate(-156 -148.01063)" fill="#6c63ff"/><path d="M758.57766,255.49347h37.89351c2.36989-17.48761-2.859-33.81382,0-45.47221H758.57766Q747.876,232.75736,758.57766,255.49347Z" transform="translate(-156 -148.01063)" fill="#ff6584"/><path d="M586.79376,351.49036h37.89351c2.36988-17.48761-2.859-33.81382,0-45.47221H586.79376Q576.09207,328.75425,586.79376,351.49036Z" transform="translate(-156 -148.01063)" fill="#3f3d56"/></svg>