<svg xmlns="http://www.w3.org/2000/svg" width="202" height="67" fill="none">
  <path fill="#09D3AC" d="M67.5843 29.9817c0-3.7295-4.4396-7.0367-11.2659-9.0557 1.6422-6.8581.9251-12.3142-2.343-14.16a5.2746 5.2746 0 00-2.6221-.6495c-3.0491 0-6.9029 2.1056-10.7951 5.7484-3.8921-3.6158-7.735-5.7105-10.7786-5.7105a5.2251 5.2251 0 00-2.6605.6604c-3.2517 1.8511-3.925 7.2748-2.3046 14.1004-6.7935 2.0081-11.2112 5.2883-11.2221 9.0015-.011 3.7132 4.445 7.0367 11.2713 9.0503-1.6422 6.8634-.9306 12.3141 2.343 14.1599a5.1988 5.1988 0 002.6166.6496c3.0546 0 6.9085-2.1056 10.8006-5.7485 3.8867 3.6158 7.7296 5.7106 10.7787 5.7106a5.2963 5.2963 0 002.6604-.6604c3.2517-1.8512 3.9195-7.2748 2.3047-14.0734 6.7934-2.0352 11.2111-5.3154 11.2166-9.0231zM43.0654 13.0882c4.4833-3.9676 7.2861-4.3952 8.2824-4.3952a2.6019 2.6019 0 011.3248.314c1.5656.8822 2.1897 3.9946 1.6915 8.1192a30.393 30.393 0 01-.5474 3.134 54.042 54.042 0 00-6.8865-1.1204 53.4315 53.4315 0 00-4.5108-5.4562c.2026-.2002.4216-.4005.646-.5954zM29.4949 33.0507c.427.812.8813 1.6239 1.3521 2.4412.4708.8174.9635 1.6455 1.5109 2.4629-1.4835-.2111-2.9232-.4764-4.2918-.7903.3832-1.3749.8704-2.7281 1.4288-4.1138zm-1.5164-10.306c1.385-.3193 2.8357-.5846 4.3411-.7903-.5474.8011-1.0182 1.6239-1.5109 2.4845-.4927.8607-.9251 1.6239-1.3467 2.4466-.5583-1.4073-1.0528-2.7876-1.4835-4.1408zm2.8521 7.2207c.6788-1.4181 1.4251-2.8363 2.2389-4.2545.8212-1.4181 1.7025-2.7984 2.6112-4.1191 1.593-.1191 3.2353-.1841 4.9268-.1786 1.6915.0054 3.2845.0649 4.8665.1894.9087 1.3099 1.7791 2.7064 2.6003 4.0867.8211 1.3803 1.5765 2.8255 2.2553 4.2382-.6733 1.4182-1.4233 2.8418-2.2334 4.2491-.8102 1.4073-1.7025 2.8038-2.6112 4.1246-1.593.1245-3.2353.184-4.9268.184s-3.2845-.0703-4.8665-.1948c-.9087-1.3099-1.7846-2.674-2.6057-4.0867-.8212-1.4128-1.5492-2.8255-2.2335-4.2383h-.0219zm17.9882-7.9947c1.4889.2057 2.9287.4709 4.2917.7848-.4051 1.337-.8868 2.7064-1.4452 4.0867-.4324-.8119-.8813-1.6238-1.3576-2.4412-.4762-.8173-.9798-1.6401-1.467-2.4303h-.0219zm1.5108 13.4887a71.0724 71.0724 0 001.3467-2.452c.5474 1.4074 1.0948 2.793 1.478 4.1463-1.3795.3193-2.8301.5791-4.3355.7848a49.124 49.124 0 001.5327-2.4791h-.0219zM40.5692 15.524c.9853 1.0393 1.9543 2.1651 2.9013 3.3722-.9361-.0379-1.8941-.065-2.863-.065-.9689 0-1.9598 0-2.9178.065.9361-1.2017 1.8941-2.3329 2.8795-3.3722zM28.4274 9.0286a2.6636 2.6636 0 011.3522-.3031 7.2425 7.2425 0 012.8411.709 21.4 21.4 0 015.4741 3.67l.6405.5791a53.4391 53.4391 0 00-4.4669 5.4129 54.6853 54.6853 0 00-6.9249 1.115c-.2408-1.0501-.4379-2.0785-.5474-3.0691-.5693-4.0867.0876-7.2044 1.6259-8.0921l.0054-.0217zm-2.8958 27.443a32.3829 32.3829 0 01-3.0327-1.0825c-3.8867-1.6239-6.2953-3.7078-6.2953-5.4886 0-1.7809 2.4196-3.854 6.3008-5.4508a31.781 31.781 0 012.9779-1.05 52.6442 52.6442 0 002.4962 6.5711 53.0764 53.0764 0 00-2.4469 6.5008zm12.5906 10.3385c-4.4833 3.9677-7.2861 4.3898-8.2879 4.3898a2.5902 2.5902 0 01-1.3248-.3139c-1.5656-.8823-2.1896-3.9947-1.6915-8.1192a30.0756 30.0756 0 01.5474-3.1287 55.0367 55.0367 0 006.8866 1.1151 52.7023 52.7023 0 004.5107 5.4561l-.6405.6008zm2.5017-2.4411c-.9853-1.0393-1.9543-2.1652-2.9068-3.3722a62.5056 62.5056 0 002.8685.0649c.9689 0 1.9597 0 2.9177-.0595-.947 1.2016-1.9105 2.3275-2.8849 3.3668h.0055zm12.1417 6.4954a2.6627 2.6627 0 01-1.3575.3193c-.9964 0-3.832-.433-8.2989-4.3844l-.6405-.5792a53.3964 53.3964 0 004.4615-5.4128 53.6685 53.6685 0 006.9303-1.115c.2408 1.0501.4324 2.0785.5474 3.069.5419 4.0813-.0876 7.1991-1.6477 8.0814l.0054.0217zm5.9122-15.3941a33.4145 33.4145 0 01-2.978 1.0446 52.956 52.956 0 00-2.5017-6.5711 52.7261 52.7261 0 002.4579-6.4954 32.4114 32.4114 0 013.0327 1.0825c3.8812 1.6239 6.2953 3.7078 6.2898 5.4886-.0054 1.7809-2.4195 3.8323-6.3062 5.4291l.0055.0217zm-18.1086-.5521a5.0658 5.0658 0 002.7928-.8345c.827-.5451 1.472-1.3204 1.8533-2.228a4.9163 4.9163 0 00.2891-2.8706 4.9512 4.9512 0 00-1.3725-2.5457 5.0428 5.0428 0 00-2.5715-1.3627 5.079 5.079 0 00-2.9038.2797c-.9187.3751-1.7042 1.0111-2.2573 1.8277a4.9294 4.9294 0 00-.471 4.6625 4.9605 4.9605 0 001.0874 1.6139 5.0238 5.0238 0 001.6299 1.0788 5.07 5.07 0 001.9236.3789zM7.1767 0v59.893H74V0H7.1766zm64.2121 57.3164H9.7933V2.5819h61.5955v54.7345zM24.8583 38.967c-1.6423 6.8634-.9306 12.3141 2.3429 14.1599a5.1989 5.1989 0 002.6167.6496c3.0546 0 6.9084-2.1056 10.8005-5.7485 3.8867 3.6158 7.7296 5.7106 10.7787 5.7106a5.297 5.297 0 002.6605-.6604c3.2516-1.8512 3.9195-7.2748 2.3046-14.0734 6.7934-2.0135 11.2111-5.2937 11.2166-9.0015.0055-3.7078-4.4396-7.0367-11.2659-9.0557 1.6423-6.858.9252-12.3141-2.3429-14.16a5.275 5.275 0 00-2.6222-.6494c-3.0491 0-6.9029 2.1055-10.7951 5.7484-3.8921-3.6158-7.735-5.7106-10.7786-5.7106a5.2254 5.2254 0 00-2.6605.6604c-3.2516 1.8512-3.925 7.2748-2.3046 14.1004-6.7935 2.0082-11.2111 5.2884-11.2221 9.0016-.0109 3.7132 4.4505 7.0042 11.2768 9.0286h-.0054zm13.253 7.8431c-4.4834 3.9677-7.2862 4.3898-8.288 4.3898a2.5896 2.5896 0 01-1.3247-.3139c-1.5656-.8823-2.1897-3.9947-1.6915-8.1192a30.0228 30.0228 0 01.5474-3.1287 55.0352 55.0352 0 006.8865 1.1151 52.7151 52.7151 0 004.5107 5.4561l-.6404.6008zm13.5705-19.9679c-.4325-.8119-.8814-1.6238-1.3576-2.4412-.4763-.8173-.9854-1.6238-1.489-2.4303 1.489.2057 2.9287.4709 4.2917.7848-.3996 1.337-.8813 2.7064-1.4397 4.0867h-.0054zm1.4889 10.2844c-1.3795.3194-2.8301.5792-4.3355.7849a62.4647 62.4647 0 001.5109-2.4791c.4926-.8516.9415-1.669 1.3466-2.452.5748 1.4344 1.0729 2.8092 1.4671 4.1733l.0109-.0271zm-2.852-7.2261c-.6733 1.4181-1.4233 2.8417-2.2335 4.249-.8102 1.4074-1.7025 2.8039-2.6112 4.1246-1.593.1245-3.2352.1841-4.9267.1841-1.6916 0-3.2845-.0704-4.8666-.1949-.9087-1.3099-1.7846-2.674-2.6057-4.0867a63.6363 63.6363 0 01-2.2554-4.2382c.6788-1.4182 1.4252-2.8364 2.239-4.2545.8211-1.4182 1.7025-2.7985 2.6112-4.1192a63.31 63.31 0 014.9267-.1786c1.6916.0054 3.2845.0649 4.8666.1894.9087 1.3099 1.7791 2.7065 2.6002 4.0867.8212 1.3803 1.5821 2.8526 2.2609 4.2653l-.0055-.027zm-17.9608 8.0543c-1.4835-.2111-2.9232-.4764-4.2918-.7903.4051-1.3316.8923-2.7064 1.4507-4.0867.427.8119.8813 1.6238 1.3521 2.4412.4708.8173.9416 1.6184 1.489 2.4358zm-1.5273-13.5321c-.4763.8119-.9251 1.6238-1.3467 2.4466-.5729-1.3965-1.0747-2.7714-1.5054-4.1246 1.385-.3193 2.8357-.5846 4.3411-.7903-.5091.8011-.9963 1.6293-1.489 2.4683zm9.7878 19.9463c-.9853-1.0393-1.9542-2.1652-2.9068-3.3722a62.5056 62.5056 0 002.8685.0649c.9689 0 1.9598 0 2.9178-.0595-.9416 1.2016-1.9051 2.3275-2.8795 3.3668zm12.1418 6.4954a2.6633 2.6633 0 01-1.3576.3193c-.9963 0-3.832-.433-8.2989-4.3844l-.6405-.5792a53.3964 53.3964 0 004.4615-5.4128 53.6685 53.6685 0 006.9303-1.115c.2409 1.0501.4325 2.0785.5474 3.069.5474 4.0813-.0821 7.1991-1.6422 8.0814v.0217zm2.8903-27.4214a32.4114 32.4114 0 013.0327 1.0825c3.8812 1.6239 6.2953 3.7078 6.2899 5.4886-.0055 1.7809-2.4141 3.8756-6.3008 5.4724a33.4349 33.4349 0 01-2.978 1.0447 52.9513 52.9513 0 00-2.5017-6.5712 52.7026 52.7026 0 002.4579-6.5387v.0217zM43.0599 13.1099c4.4834-3.9676 7.2862-4.3952 8.2825-4.3952a2.6018 2.6018 0 011.3247.3139c1.5656.8823 2.1897 3.9947 1.6915 8.1192a30.3948 30.3948 0 01-.5474 3.1341 54.0245 54.0245 0 00-6.8865-1.1205 53.4316 53.4316 0 00-4.5107-5.4561c.208-.2219.427-.4222.6514-.6171l-.0055.0217zm-2.4907 2.4141c.9853 1.0393 1.9543 2.1651 2.9013 3.3722-.9361-.0379-1.8941-.065-2.863-.065-.9689 0-1.9598 0-2.9178.065.9361-1.2017 1.8941-2.3329 2.8795-3.3722zM28.4274 9.0286a2.6636 2.6636 0 011.3522-.3031 7.2425 7.2425 0 012.8411.709 21.4 21.4 0 015.4741 3.67l.6405.5791a53.4391 53.4391 0 00-4.4669 5.4129 54.6853 54.6853 0 00-6.9249 1.115c-.2408-1.0501-.4379-2.0785-.5474-3.0691-.5693-4.0867.0876-7.2044 1.6259-8.0921l.0054-.0217zm-5.923 15.4211a31.781 31.781 0 012.9779-1.05 52.6442 52.6442 0 002.4962 6.5711 53.0836 53.0836 0 00-2.4579 6.4954 32.4319 32.4319 0 01-3.0327-1.0825c-3.8866-1.6239-6.2953-3.7078-6.2953-5.4886 0-1.7809 2.4306-3.8486 6.3118-5.4454zm18.0648.5413a5.0669 5.0669 0 00-2.7929.8344c-.827.5452-1.4719 1.3205-1.8533 2.2281a4.9179 4.9179 0 00-.2891 2.8706 4.952 4.952 0 001.3725 2.5457 5.042 5.042 0 002.5715 1.3626 5.078 5.078 0 002.9038-.2796c.9187-.3751 1.7042-1.0111 2.2573-1.8277a4.9294 4.9294 0 00.85-2.7597 4.916 4.916 0 00-.3711-1.9111 4.9592 4.9592 0 00-1.0856-1.6232 5.0235 5.0235 0 00-1.6332-1.0857 5.0682 5.0682 0 00-1.9299-.3814v.027zm0 0a5.0669 5.0669 0 00-2.7929.8344c-.827.5452-1.4719 1.3205-1.8533 2.2281a4.9179 4.9179 0 00-.2891 2.8706 4.952 4.952 0 001.3725 2.5457 5.042 5.042 0 002.5715 1.3626 5.078 5.078 0 002.9038-.2796c.9187-.3751 1.7042-1.0111 2.2573-1.8277a4.9294 4.9294 0 00.85-2.7597 4.916 4.916 0 00-.3711-1.9111 4.9592 4.9592 0 00-1.0856-1.6232 5.0235 5.0235 0 00-1.6332-1.0857 5.0682 5.0682 0 00-1.9299-.3814v.027zm0 0a5.0669 5.0669 0 00-2.7929.8344c-.827.5452-1.4719 1.3205-1.8533 2.2281a4.9179 4.9179 0 00-.2891 2.8706 4.952 4.952 0 001.3725 2.5457 5.042 5.042 0 002.5715 1.3626 5.078 5.078 0 002.9038-.2796c.9187-.3751 1.7042-1.0111 2.2573-1.8277a4.9294 4.9294 0 00.85-2.7597 4.916 4.916 0 00-.3711-1.9111 4.9592 4.9592 0 00-1.0856-1.6232 5.0235 5.0235 0 00-1.6332-1.0857 5.0682 5.0682 0 00-1.9299-.3814v.027zm27.0151 5.0015c0-3.7295-4.4396-7.0367-11.2659-9.0557 1.6422-6.858.9251-12.3142-2.343-14.16a5.2748 5.2748 0 00-2.6221-.6495c-3.0491 0-6.9029 2.1056-10.7951 5.7484-3.8921-3.6157-7.735-5.7105-10.7786-5.7105a5.2251 5.2251 0 00-2.6605.6604c-3.2517 1.8512-3.925 7.2748-2.3046 14.1004-6.7935 2.0082-11.2112 5.2883-11.2221 9.0015-.011 3.7132 4.445 7.0367 11.2713 9.0503-1.6422 6.8635-.9306 12.3142 2.343 14.1599a5.1967 5.1967 0 002.6166.6496c3.0546 0 6.9085-2.1056 10.8006-5.7484 3.8867 3.6157 7.7296 5.7105 10.7787 5.7105a5.2963 5.2963 0 002.6604-.6604c3.2517-1.8512 3.9195-7.2748 2.3047-14.0733 6.7934-2.0461 11.2111-5.3263 11.2166-9.034v.0108zM43.0654 13.0882c4.4833-3.9676 7.2861-4.3952 8.2824-4.3952a2.6019 2.6019 0 011.3248.314c1.5656.8822 2.1897 3.9946 1.6915 8.1192a30.393 30.393 0 01-.5474 3.134 54.042 54.042 0 00-6.8865-1.1204 53.4315 53.4315 0 00-4.5108-5.4562c.2026-.2002.4216-.4005.646-.5954zM29.4949 33.0507c.427.812.8813 1.6239 1.3521 2.4412.4708.8174.9635 1.6455 1.5109 2.4629-1.4835-.2111-2.9232-.4764-4.2918-.7903.3832-1.3749.8704-2.7281 1.4288-4.1138zm-1.5164-10.306c1.385-.3193 2.8357-.5846 4.3411-.7903-.5474.8011-1.0182 1.6239-1.5109 2.4845-.4927.8607-.9251 1.6239-1.3467 2.4466-.5583-1.4073-1.0528-2.7876-1.4835-4.1408zm2.8521 7.2207c.6788-1.4181 1.4251-2.8363 2.2389-4.2545.8212-1.4181 1.7025-2.7984 2.6112-4.1191 1.593-.1191 3.2353-.1841 4.9268-.1786 1.6915.0054 3.2845.0649 4.8665.1894.9087 1.3099 1.7791 2.7064 2.6003 4.0867.8211 1.3803 1.5765 2.8255 2.2553 4.2382-.6733 1.4182-1.4233 2.8418-2.2334 4.2491-.8102 1.4073-1.7025 2.8038-2.6112 4.1246-1.593.1245-3.2353.184-4.9268.184s-3.2845-.0703-4.8665-.1948c-.9087-1.3099-1.7846-2.674-2.6057-4.0867-.8212-1.4128-1.5492-2.8255-2.2335-4.2383h-.0219zm17.9882-7.9947c1.4889.2057 2.9287.4709 4.2917.7848-.4051 1.337-.8868 2.7064-1.4452 4.0867-.4324-.8119-.8813-1.6238-1.3576-2.4412-.4762-.8173-.9798-1.6401-1.467-2.4303h-.0219zm1.5108 13.4887a71.0724 71.0724 0 001.3467-2.452c.5474 1.4074 1.0948 2.793 1.478 4.1463-1.3795.3193-2.8301.5791-4.3355.7848a49.124 49.124 0 001.5327-2.4791h-.0219zM40.5692 15.524c.9853 1.0393 1.9543 2.1651 2.9013 3.3722-.9361-.0379-1.8941-.065-2.863-.065-.9689 0-1.9598 0-2.9178.065.9361-1.2017 1.8941-2.3329 2.8795-3.3722zM28.4274 9.0286a2.6636 2.6636 0 011.3522-.3031 7.2425 7.2425 0 012.8411.709 21.4 21.4 0 015.4741 3.67l.6405.5791a53.4391 53.4391 0 00-4.4669 5.4129 54.6853 54.6853 0 00-6.9249 1.115c-.2408-1.0501-.4379-2.0785-.5474-3.0691-.5693-4.0867.0876-7.2044 1.6259-8.0921l.0054-.0217zm-2.8958 27.443a32.3829 32.3829 0 01-3.0327-1.0825c-3.8867-1.6239-6.2953-3.7078-6.2953-5.4886 0-1.7809 2.4196-3.854 6.3008-5.4508a31.781 31.781 0 012.9779-1.05 52.6442 52.6442 0 002.4962 6.5711 53.0764 53.0764 0 00-2.4469 6.5008zm12.5906 10.3385c-4.4833 3.9677-7.2861 4.3898-8.2879 4.3898a2.5902 2.5902 0 01-1.3248-.3139c-1.5656-.8823-2.1896-3.9947-1.6915-8.1192a30.0756 30.0756 0 01.5474-3.1287 55.0367 55.0367 0 006.8866 1.1151 52.7023 52.7023 0 004.5107 5.4561l-.6405.6008zm2.5017-2.4411c-.9853-1.0393-1.9543-2.1652-2.9068-3.3722a62.5056 62.5056 0 002.8685.0649c.9689 0 1.9597 0 2.9177-.0595-.947 1.2016-1.9105 2.3275-2.8849 3.3668h.0055zm12.1417 6.4954a2.6627 2.6627 0 01-1.3575.3193c-.9964 0-3.832-.433-8.2989-4.3844l-.6405-.5792a53.3964 53.3964 0 004.4615-5.4128 53.6685 53.6685 0 006.9303-1.115c.2408 1.0501.4324 2.0785.5474 3.069.5419 4.0813-.0876 7.1991-1.6477 8.0814l.0054.0217zm5.9122-15.3941a33.4145 33.4145 0 01-2.978 1.0446 52.956 52.956 0 00-2.5017-6.5711 52.7261 52.7261 0 002.4579-6.4954 32.4114 32.4114 0 013.0327 1.0825c3.8812 1.6239 6.2953 3.7078 6.2898 5.4886-.0054 1.7809-2.4195 3.8323-6.3062 5.4291l.0055.0217zm-18.1086-.5521a5.0658 5.0658 0 002.7928-.8345c.827-.5451 1.472-1.3204 1.8533-2.228a4.9163 4.9163 0 00.2891-2.8706 4.9512 4.9512 0 00-1.3725-2.5457 5.0428 5.0428 0 00-2.5715-1.3627 5.079 5.079 0 00-2.9038.2797c-.9187.3751-1.7042 1.0111-2.2573 1.8277a4.9294 4.9294 0 00-.471 4.6625 4.9605 4.9605 0 001.0874 1.6139 5.0238 5.0238 0 001.6299 1.0788 5.07 5.07 0 001.9236.3789zM2.6222 64.4181V4.5035L0 7.1016V67h66.8124l2.6167-2.5819H2.6221z"/>
  <path fill="#000" d="M105.58 16.4v4.56h-4.94V43h-5.244V20.96h-4.94V16.4h15.124zm11.889 6.118h5.016v19.228c0 3.0147-.19 4.8893-.57 5.624-.38.7347-1.38 1.7733-3.002 3.116-1.596 1.3427-2.812 2.014-3.648 2.014-.836 0-1.912-.4433-3.23-1.33-1.317-.8613-2.305-1.862-2.964-3.002l3.914-2.698.418.494c.912 1.1907 1.533 1.786 1.862 1.786.355 0 .722-.1647 1.102-.494.406-.3293.684-.6587.836-.988.178-.3293.266-1.52.266-3.572v-2.052c-1.418 1.368-2.482 2.052-3.192 2.052-.684 0-1.824-.6967-3.42-2.09-1.57-1.4187-2.356-2.812-2.356-4.18v-6.574c0-1.292-.152-2.2927-.456-3.002-.304-.7093-.785-1.33-1.444-1.862l4.18-2.926c1.824 1.444 2.736 3.496 2.736 6.156v7.676c0 .4307.241.8867.722 1.368.482.456.9.684 1.254.684.355 0 1.014-.5193 1.976-1.558v-13.87zm14.869 14.706c.177.304.532.6333 1.064.988.557.3293 1.013.494 1.368.494.38 0 .849-.4687 1.406-1.406.329-.5827.494-2.09.494-4.522 0-2.4573-.165-3.9773-.494-4.56-.152-.2787-.38-.5827-.684-.912-.279-.3293-.557-.494-.836-.494-.253 0-.659.1773-1.216.532-.557.3293-.925.646-1.102.95-.177.304-.266 1.786-.266 4.446 0 2.66.089 4.1547.266 4.484zm8.664.95c-.329.836-1.178 1.9253-2.546 3.268-1.343 1.3427-2.356 2.014-3.04 2.014-.684 0-1.799-.684-3.344-2.052v3.306c0 1.292.152 2.2927.456 3.002.304.7093.785 1.33 1.444 1.862l-4.18 2.926c-1.824-1.444-2.736-3.496-2.736-6.156v-16.15c0-2.4067-.633-4.142-1.9-5.206l4.18-2.926c.709.5827 1.368 1.4947 1.976 2.736 1.976-1.824 3.382-2.736 4.218-2.736.608 0 1.583.6713 2.926 2.014 1.368 1.3427 2.217 2.432 2.546 3.268.329.836.494 2.6473.494 5.434 0 2.7613-.165 4.56-.494 5.396zm16.971-5.472v1.368h-9.196c0 1.52.19 2.7233.57 3.61.127.304.355.6207.684.95.329.304.671.456 1.026.456s.798-.304 1.33-.912c.532-.608.95-1.3427 1.254-2.204l3.914 2.774c-.684 1.2667-1.735 2.3687-3.154 3.306-1.393.9373-2.521 1.406-3.382 1.406-.861 0-2.115-.6713-3.762-2.014-1.621-1.3427-2.609-2.3813-2.964-3.116-.355-.76-.532-2.6093-.532-5.548 0-2.964.177-4.8133.532-5.548.355-.76 1.343-1.8113 2.964-3.154 1.647-1.3427 2.85-2.014 3.61-2.014.76 0 1.951.6713 3.572 2.014 1.647 1.3427 2.647 2.394 3.002 3.154.355.7347.532 2.5587.532 5.472zm-5.282-4.75c-.177-.3547-.469-.6967-.874-1.026-.38-.3293-.747-.494-1.102-.494-.329 0-.709.342-1.14 1.026-.431.6587-.697 1.6593-.798 3.002h4.332c-.076-1.3427-.215-2.1787-.418-2.508z"/>
  <path fill="#09D3AC" d="M167.41 24.076v2.204h1.14c.431 0 .874-.228 1.33-.684.481-.4813.836-.9247 1.064-1.33.253-.4307.507-1.634.76-3.61.253-2.0013.38-3.42.38-4.256h5.244c0 .988-.139 2.5333-.418 4.636-.279 2.1027-.532 3.3947-.76 3.876-.38.836-1.343 1.9633-2.888 3.382 1.799 1.5453 2.964 2.85 3.496 3.914.253.532.507 2.1407.76 4.826.279 2.66.418 4.6487.418 5.966h-5.244c0-1.1907-.127-3.0527-.38-5.586-.228-2.5587-.456-4.0407-.684-4.446-.785-1.4187-1.71-2.128-2.774-2.128h-1.444V43h-5.244V26.356c0-2.052-.152-3.4707-.456-4.256-.279-.8107-.887-1.7987-1.824-2.964l4.56-3.192c.811.532 1.507 1.52 2.09 2.964.583 1.4187.874 3.1413.874 5.168zm13.915-1.558h5.016v13.148c0 1.292.152 2.2927.456 3.002.304.7093.785 1.33 1.444 1.862l-4.18 2.926c-1.824-1.444-2.736-3.496-2.736-6.156V22.518zm2.584-7.942c.278 0 .899.418 1.862 1.254.962.8107 1.444 1.368 1.444 1.672 0 .2787-.494.836-1.482 1.672-.963.836-1.584 1.254-1.862 1.254-.254 0-.862-.4053-1.824-1.216-.963-.836-1.444-1.3933-1.444-1.672 0-.304.481-.874 1.444-1.71.988-.836 1.608-1.254 1.862-1.254zm11.806 11.932v8.398c0 1.1907.405 2.28 1.216 3.268.81.988 1.925 1.7733 3.344 2.356l-4.18 2.926c-1.52-.7093-2.8-1.6847-3.838-2.926-1.039-1.2667-1.558-2.5967-1.558-3.99V26.508h-1.9v-2.85l1.9-.456c-.051-1.2413-.203-2.2167-.456-2.926-.254-.7347-.735-1.444-1.444-2.128l4.18-2.926c1.824 1.444 2.736 3.496 2.736 6.156v1.14h4.256v3.99h-4.256z"/>
</svg>